# xmcd
#
# Track frame offsets:
#  150
#  13016
#  25847
#  40988
#  52810
#  65957
#  80093
#  94273
#  103324
#  115500
#  126802
#  140815
#  155453
#  170011
#  182795
#  196898
#  209129
#  223230
#  236469
#  251263
#  265765
#  278336
#  290177
#  297342
#  311956
#
# Disc length: 4341 seconds
#
# Revision: 0
# Processed by: cddbd v1.5.1PL0 Copyright (c) Steve Scherf et al.
# Submitted via: Collectorz.com_Music_Collector 6.9
#
DISCID=8910f319
DTITLE=Various Artist - American Primitive Vol. 2: Pre-War Revenants (1897-1939) Disc1
DYEAR=2005
DGENRE=
TTITLE0=Homer Quincy Smith - I Want Jesus To Talk To Me
TTITLE1=Walter Taylor - Deal Rag
TTITLE2=Elvie Thomas - Motherless Child Blues
TTITLE3=Tommy Settlers And His Blues Moaner - Big Bed Bug (Bed Bug Blues)
TTITLE4=Nugrape Twins - I Got Your Ice Cold Nugrape
TTITLE5=(Red Hot) Old Mose (Moses Mason) - Molly Man
TTITLE6=Bayless Rose - Black Dog Blues
TTITLE7=Mattie May Thomas - Workhouse Blues
TTITLE8=Kid Brown And His Blue Band - Bo-Lita
TTITLE9=John Hammond - My Mama Always Talked To Me
TTITLE10=The Salty Dog Four - Ballin' The Jack
TTITLE11=Alfred Lewis - Friday Moan Blues
TTITLE12=Geeshie Wiley - Pick Poor Robin Clean
TTITLE13=The Mississippi Moaner (Isaiah Nettles) - It's Cold In China Blues
TTITLE14=Pigmeat Terry - Black Sheep Blues
TTITLE15=Two Poor Boys - Old Hen Cackle
TTITLE16=Bayless Rose - Frisco Blues
TTITLE17=William Harris - Hot Time Blues
TTITLE18=Two Poor Boys - Take a Look At That Baby
TTITLE19=Geeshie Wiley - Skinny Leg Blues
TTITLE20=John Hammond - Little Birdie
TTITLE21=Otto Virgial - Little Girl in Rome
TTITLE22=Mattie May Thomas - Dangerous Blues
TTITLE23=Blues Birdhead (James Simons) - Mean Low Blues
TTITLE24=Elizabeth Johnson - Be My Kid Blues
EXTD=
EXTT0=
EXTT1=
EXTT2=
EXTT3=
EXTT4=
EXTT5=
EXTT6=
EXTT7=
EXTT8=
EXTT9=
EXTT10=
EXTT11=
EXTT12=
EXTT13=
EXTT14=
EXTT15=
EXTT16=
EXTT17=
EXTT18=
EXTT19=
EXTT20=
EXTT21=
EXTT22=
EXTT23=
EXTT24=
PLAYORDER=
